<svg width="22" height="23" viewBox="0 0 22 23" fill="none" xmlns="http://www.w3.org/2000/svg">
    <path d="M1 1.5H2.74C3.82 1.5 4.67 2.43 4.58 3.5L3.75 13.46C3.71759 13.8459 3.76569 14.2342 3.89123 14.6005C4.01678 14.9669 4.21705 15.3031 4.47934 15.5879C4.74163 15.8728 5.06023 16.1001 5.41495 16.2553C5.76967 16.4106 6.15278 16.4905 6.54 16.49H17.19C18.63 16.49 19.89 15.31 20 13.88L20.54 6.38C20.66 4.72 19.4 3.37 17.73 3.37H4.82M8 7.5H20M15.25 21.5C15.5815 21.5 15.8995 21.3683 16.1339 21.1339C16.3683 20.8995 16.5 20.5815 16.5 20.25C16.5 19.9185 16.3683 19.6005 16.1339 19.3661C15.8995 19.1317 15.5815 19 15.25 19C14.9185 19 14.6005 19.1317 14.3661 19.3661C14.1317 19.6005 14 19.9185 14 20.25C14 20.5815 14.1317 20.8995 14.3661 21.1339C14.6005 21.3683 14.9185 21.5 15.25 21.5ZM7.25 21.5C7.58152 21.5 7.89946 21.3683 8.13388 21.1339C8.3683 20.8995 8.5 20.5815 8.5 20.25C8.5 19.9185 8.3683 19.6005 8.13388 19.3661C7.89946 19.1317 7.58152 19 7.25 19C6.91848 19 6.60054 19.1317 6.36612 19.3661C6.1317 19.6005 6 19.9185 6 20.25C6 20.5815 6.1317 20.8995 6.36612 21.1339C6.60054 21.3683 6.91848 21.5 7.25 21.5Z" stroke="black" stroke-width="1.5" stroke-miterlimit="10" stroke-linecap="round" stroke-linejoin="round"/>
</svg>